<svg xmlns="http://www.w3.org/2000/svg" viewBox="0 0 64 64" role="img" aria-labelledby="title">
  <title id="title">Selo</title>
  <path fill="#f7f1e3" stroke="#8b5e3c" stroke-width="3" stroke-linejoin="round" d="M8 13h5a4 4 0 0 0 8 0h7a4 4 0 0 0 8 0h7a4 4 0 0 0 8 0h5v5a4 4 0 0 0 0 8v8a4 4 0 0 0 0 8v9h-5a4 4 0 0 0-8 0h-7a4 4 0 0 0-8 0h-7a4 4 0 0 0-8 0H8v-9a4 4 0 0 0 0-8v-8a4 4 0 0 0 0-8v-5Z"/>
  <path fill="none" stroke="#2e2a24" stroke-width="2" stroke-linecap="round" stroke-linejoin="round" d="M19 36c7-9 15-12 25-9-4 1-7 3-9 6 4 0 7 1 10 3-10 4-18 4-26 0Z"/>
  <path fill="none" stroke="#a44a3f" stroke-width="2.5" stroke-linecap="round" stroke-dasharray="2 5" d="M18 44c10-2 20-2 29 0"/>
</svg>
